<!DOCTYPE svg PUBLIC "-//W3C//DTD SVG 1.1//EN" "http://www.w3.org/Graphics/SVG/1.1/DTD/svg11.dtd">
<!-- Uploaded to: SVG Repo, www.svgrepo.com, Transformed by: SVG Repo Mixer Tools -->
<svg version="1.1" id="Layer_1" xmlns="http://www.w3.org/2000/svg" xmlns:xlink="http://www.w3.org/1999/xlink" viewBox="0 0 512 512" xml:space="preserve" width="800px" height="800px" fill="#5569FF" stroke="#5569FF">
<g id="SVGRepo_bgCarrier" stroke-width="0"/>
<g id="SVGRepo_tracerCarrier" stroke-linecap="round" stroke-linejoin="round"/>
<g id="SVGRepo_iconCarrier"> <circle style="fill:#5569FF;" cx="256" cy="256" r="256"/> <g> <rect x="113.424" y="376" style="fill:#E6E5E5;" width="285.144" height="8"/> <rect x="157.296" y="400" style="fill:#E6E5E5;" width="197.408" height="8"/> </g> <circle style="fill:#FFFFFF;" cx="193.36" cy="224.8" r="27.4"/> <path style="fill:#c629db;" d="M240.656,312.952c0,0,0,1.28,0-24.256s-27.864-26-27.864-26H174c0,0-27.864,0.312-27.864,26 c0,25.536,0,24.256,0,24.256H240.656z"/> <circle style="fill:#FFFFFF;" cx="318.608" cy="224.8" r="27.4"/> <path style="fill:#c629db;" d="M365.88,312.952c0,0,0,1.28,0-24.256s-27.864-26-27.864-26h-38.792c0,0-27.864,0.312-27.864,26 c0,25.536,0,24.256,0,24.256H365.88z"/> <circle style="fill:#FFFFFF;" cx="256" cy="94.8" r="27.4"/> <path style="fill:#c629db;" d="M303.264,182.944c0,0,0,1.28,0-24.256s-27.864-26-27.864-26h-38.792c0,0-27.864,0.312-27.864,26 c0,25.536,0,24.256,0,24.256H303.264z"/> </g>
</svg>